<mxfile host="app.diagrams.net" agent="Mozilla/5.0 (Windows NT 10.0; Win64; x64) AppleWebKit/537.36 (KHTML, like Gecko) Chrome/138.0.0.0 Safari/537.36" version="28.0.7">
  <diagram name="Page-1" id="tqjSqzvueAbk7ngBmSSA">
    <mxGraphModel dx="1213" dy="657" grid="1" gridSize="10" guides="1" tooltips="1" connect="1" arrows="1" fold="1" page="1" pageScale="1" pageWidth="850" pageHeight="1100" math="0" shadow="0">
      <root>
        <mxCell id="0" />
        <mxCell id="1" parent="0" />
        <mxCell id="wLrX6_X3mQyZMAKJTXOu-36" style="edgeStyle=orthogonalEdgeStyle;rounded=0;orthogonalLoop=1;jettySize=auto;html=1;" edge="1" parent="1" source="wLrX6_X3mQyZMAKJTXOu-16" target="wLrX6_X3mQyZMAKJTXOu-34">
          <mxGeometry relative="1" as="geometry" />
        </mxCell>
        <mxCell id="wLrX6_X3mQyZMAKJTXOu-37" value="1-N" style="edgeLabel;html=1;align=center;verticalAlign=middle;resizable=0;points=[];" vertex="1" connectable="0" parent="wLrX6_X3mQyZMAKJTXOu-36">
          <mxGeometry x="-0.3417" y="1" relative="1" as="geometry">
            <mxPoint as="offset" />
          </mxGeometry>
        </mxCell>
        <mxCell id="wLrX6_X3mQyZMAKJTXOu-16" value="User" style="swimlane;whiteSpace=wrap;html=1;" vertex="1" parent="1">
          <mxGeometry x="80" y="40" width="140" height="260" as="geometry" />
        </mxCell>
        <mxCell id="wLrX6_X3mQyZMAKJTXOu-23" value="&lt;div&gt;user_id (PK)&amp;nbsp;&lt;/div&gt;&lt;div&gt;nama&lt;/div&gt;&lt;div&gt;email&amp;nbsp;&lt;/div&gt;&lt;div&gt;tanggal_lahir&lt;/div&gt;&lt;div&gt;tempat_lahir&lt;/div&gt;&lt;div&gt;alamat&lt;/div&gt;&lt;div&gt;nik&lt;/div&gt;&lt;div&gt;no_rekening&lt;/div&gt;&lt;div&gt;no_tlp&lt;/div&gt;&lt;div&gt;ktp_url&lt;/div&gt;&lt;div&gt;biometric_enable&lt;/div&gt;&lt;div&gt;password_hash&lt;/div&gt;&lt;div&gt;status&lt;/div&gt;&lt;div&gt;created_date&lt;/div&gt;&lt;div&gt;modified_date&lt;/div&gt;" style="text;strokeColor=none;fillColor=none;align=left;verticalAlign=middle;spacingLeft=4;spacingRight=4;overflow=hidden;points=[[0,0.5],[1,0.5]];portConstraint=eastwest;rotatable=0;whiteSpace=wrap;html=1;" vertex="1" parent="wLrX6_X3mQyZMAKJTXOu-16">
          <mxGeometry y="30" width="110" height="220" as="geometry" />
        </mxCell>
        <mxCell id="wLrX6_X3mQyZMAKJTXOu-24" value="Pembayaran" style="swimlane;whiteSpace=wrap;html=1;" vertex="1" parent="1">
          <mxGeometry x="560" y="40" width="150" height="260" as="geometry" />
        </mxCell>
        <mxCell id="wLrX6_X3mQyZMAKJTXOu-25" value="id_pembayaran(PK)&lt;div&gt;id_pinjaman(FK)&lt;/div&gt;&lt;div&gt;jumlah_pembayaran&lt;/div&gt;&lt;div&gt;tanggal_jatuh_tempo&lt;/div&gt;&lt;div&gt;tanggal_pembayaran&lt;/div&gt;&lt;div&gt;motode_pembayaran&lt;/div&gt;&lt;div&gt;status_pembayaran&lt;/div&gt;&lt;div&gt;created_by&amp;nbsp;&lt;/div&gt;&lt;div&gt;created_date&lt;/div&gt;&lt;div&gt;modified_by&lt;/div&gt;&lt;div&gt;modified_date&lt;/div&gt;" style="text;strokeColor=none;fillColor=none;align=left;verticalAlign=middle;spacingLeft=4;spacingRight=4;overflow=hidden;points=[[0,0.5],[1,0.5]];portConstraint=eastwest;rotatable=0;whiteSpace=wrap;html=1;" vertex="1" parent="wLrX6_X3mQyZMAKJTXOu-24">
          <mxGeometry y="20" width="130" height="170" as="geometry" />
        </mxCell>
        <mxCell id="wLrX6_X3mQyZMAKJTXOu-26" value="Pinjaman" style="swimlane;whiteSpace=wrap;html=1;" vertex="1" parent="1">
          <mxGeometry x="310" y="40" width="150" height="260" as="geometry" />
        </mxCell>
        <mxCell id="wLrX6_X3mQyZMAKJTXOu-27" value="id_pinjaman(PK)&lt;div&gt;user_id(FK)&lt;/div&gt;&lt;div&gt;jumlah&lt;/div&gt;&lt;div&gt;periode_pinjaman&lt;/div&gt;&lt;div&gt;bunga_pinjaman&lt;/div&gt;&lt;div&gt;status_pinjaman&lt;/div&gt;&lt;div&gt;created_by&lt;/div&gt;&lt;div&gt;created_date&lt;/div&gt;&lt;div&gt;modified_by&lt;/div&gt;&lt;div&gt;modified_date&lt;/div&gt;&lt;div&gt;&lt;br&gt;&lt;/div&gt;&lt;div&gt;&lt;br&gt;&lt;/div&gt;" style="text;strokeColor=none;fillColor=none;align=left;verticalAlign=middle;spacingLeft=4;spacingRight=4;overflow=hidden;points=[[0,0.5],[1,0.5]];portConstraint=eastwest;rotatable=0;whiteSpace=wrap;html=1;" vertex="1" parent="wLrX6_X3mQyZMAKJTXOu-26">
          <mxGeometry y="30" width="110" height="170" as="geometry" />
        </mxCell>
        <mxCell id="wLrX6_X3mQyZMAKJTXOu-28" style="edgeStyle=orthogonalEdgeStyle;rounded=0;orthogonalLoop=1;jettySize=auto;html=1;exitX=1;exitY=0.5;exitDx=0;exitDy=0;entryX=0;entryY=0.588;entryDx=0;entryDy=0;entryPerimeter=0;" edge="1" parent="1" source="wLrX6_X3mQyZMAKJTXOu-16" target="wLrX6_X3mQyZMAKJTXOu-27">
          <mxGeometry relative="1" as="geometry" />
        </mxCell>
        <mxCell id="wLrX6_X3mQyZMAKJTXOu-30" value="1-N" style="edgeLabel;html=1;align=center;verticalAlign=middle;resizable=0;points=[];" vertex="1" connectable="0" parent="wLrX6_X3mQyZMAKJTXOu-28">
          <mxGeometry x="0.1926" y="-3" relative="1" as="geometry">
            <mxPoint as="offset" />
          </mxGeometry>
        </mxCell>
        <mxCell id="wLrX6_X3mQyZMAKJTXOu-29" style="edgeStyle=orthogonalEdgeStyle;rounded=0;orthogonalLoop=1;jettySize=auto;html=1;exitX=1;exitY=0.5;exitDx=0;exitDy=0;entryX=0.008;entryY=0.71;entryDx=0;entryDy=0;entryPerimeter=0;" edge="1" parent="1" source="wLrX6_X3mQyZMAKJTXOu-26" target="wLrX6_X3mQyZMAKJTXOu-25">
          <mxGeometry relative="1" as="geometry">
            <Array as="points">
              <mxPoint x="561" y="170" />
            </Array>
          </mxGeometry>
        </mxCell>
        <mxCell id="wLrX6_X3mQyZMAKJTXOu-31" value="1-N" style="edgeLabel;html=1;align=center;verticalAlign=middle;resizable=0;points=[];" vertex="1" connectable="0" parent="wLrX6_X3mQyZMAKJTXOu-29">
          <mxGeometry x="-0.1219" y="-1" relative="1" as="geometry">
            <mxPoint as="offset" />
          </mxGeometry>
        </mxCell>
        <mxCell id="wLrX6_X3mQyZMAKJTXOu-34" value="Log_notifikasi" style="swimlane;whiteSpace=wrap;html=1;" vertex="1" parent="1">
          <mxGeometry x="80" y="380" width="140" height="200" as="geometry" />
        </mxCell>
        <mxCell id="wLrX6_X3mQyZMAKJTXOu-35" value="&lt;div&gt;notif_id(PK)&lt;/div&gt;user_id(FK)&lt;div&gt;jenis_notif&lt;/div&gt;&lt;div&gt;status_notif&lt;/div&gt;&lt;div&gt;isi_pesan&lt;/div&gt;&lt;div&gt;status&lt;/div&gt;&lt;div&gt;send_date&lt;br&gt;&lt;div&gt;&lt;br&gt;&lt;/div&gt;&lt;/div&gt;" style="text;strokeColor=none;fillColor=none;align=left;verticalAlign=middle;spacingLeft=4;spacingRight=4;overflow=hidden;points=[[0,0.5],[1,0.5]];portConstraint=eastwest;rotatable=0;whiteSpace=wrap;html=1;" vertex="1" parent="wLrX6_X3mQyZMAKJTXOu-34">
          <mxGeometry y="30" width="110" height="130" as="geometry" />
        </mxCell>
      </root>
    </mxGraphModel>
  </diagram>
</mxfile>
